<svg width="20" height="20" viewBox="0 0 20 20" fill="none" xmlns="http://www.w3.org/2000/svg">
<g id="&#240;&#159;&#166;&#134; icon &#34;home&#34;">
<path id="Vector" d="M9.33435 0.252893C9.51781 0.0899782 9.75465 0 10 0C10.2454 0 10.4822 0.0899782 10.6656 0.252893L19.688 8.27273C19.8766 8.45189 19.9881 8.69734 19.9991 8.95724C20.0101 9.21714 19.9196 9.47113 19.7468 9.66555C19.574 9.85997 19.3323 9.97961 19.0729 9.99918C18.8135 10.0187 18.5567 9.93672 18.3567 9.77043L18.0198 9.47269V17.0414C18.0198 17.5732 17.8086 18.0831 17.4326 18.4591C17.0566 18.8351 16.5466 19.0464 16.0149 19.0464H3.98512C3.45338 19.0464 2.94341 18.8351 2.5674 18.4591C2.1914 18.0831 1.98017 17.5732 1.98017 17.0414V9.47269L1.64333 9.77043C1.4433 9.93672 1.18645 10.0187 0.927061 9.99918C0.667668 9.97961 0.426039 9.85997 0.253218 9.66555C0.0803968 9.47113 -0.0100825 9.21714 0.000893657 8.95724C0.0118698 8.69734 0.123442 8.45189 0.31204 8.27273L9.33435 0.252893ZM3.98512 7.68828V17.0414H6.99256V12.029C6.99256 11.7631 7.09818 11.5082 7.28618 11.3202C7.47418 11.1322 7.72917 11.0265 7.99504 11.0265H12.005C12.2708 11.0265 12.5258 11.1322 12.7138 11.3202C12.9018 11.5082 13.0074 11.7631 13.0074 12.029V17.0414H16.0149V7.68928L10 2.34306L3.98512 7.68828ZM11.0025 17.0414V13.0315H8.99752V17.0414H11.0025Z" fill="url(#paint0_linear_110_56)"/>
</g>
<defs>
<linearGradient id="paint0_linear_110_56" x1="10" y1="0" x2="10" y2="19.0464" gradientUnits="userSpaceOnUse">
<stop stop-color="#7AF1F8"/>
<stop offset="1" stop-color="#43A1F8"/>
</linearGradient>
</defs>
</svg>
